<svg width="26" height="25" viewBox="0 0 26 25" fill="none" xmlns="http://www.w3.org/2000/svg">
<path d="M12.5481 1.95426C12.7287 1.57292 13.2713 1.57292 13.4519 1.95426L16.5176 8.42815C16.5902 8.58144 16.7356 8.68747 16.9037 8.70981L23.9677 9.6481C24.3835 9.70332 24.5506 10.2151 24.2475 10.5051L19.0749 15.4528C18.9533 15.5692 18.8983 15.7389 18.9287 15.9045L20.2266 22.967C20.3027 23.381 19.8643 23.698 19.4949 23.496L13.2399 20.0752C13.0904 19.9934 12.9096 19.9934 12.7601 20.0752L6.5051 23.496C6.13574 23.698 5.69734 23.381 5.77342 22.967L7.07126 15.9045C7.10168 15.7389 7.04675 15.5692 6.9251 15.4528L1.75255 10.5051C1.44945 10.2151 1.61654 9.70332 2.03233 9.6481L9.09632 8.70981C9.26445 8.68747 9.40979 8.58144 9.48238 8.42815L12.5481 1.95426Z" stroke="#979797" stroke-width="1.5" stroke-linecap="round" stroke-linejoin="round"/>
</svg>
