<svg width="18" height="17" viewBox="0 0 18 17" fill="none" xmlns="http://www.w3.org/2000/svg">
<path d="M8.54996 1.92969C8.73206 1.5535 9.26794 1.5535 9.45004 1.9297L11.305 5.76161C11.3784 5.91336 11.5234 6.01786 11.6906 6.03959L15.9487 6.59289C16.3679 6.64735 16.5346 7.16502 16.2259 7.45381L13.1205 10.3597C12.9956 10.4766 12.9391 10.6491 12.9707 10.8171L13.7517 14.9747C13.8292 15.3872 13.3945 15.7059 13.0244 15.5079L9.23587 13.481C9.08851 13.4021 8.9115 13.4021 8.76413 13.481L4.97561 15.5079C4.60548 15.7059 4.17084 15.3872 4.24833 14.9747L5.02932 10.8171C5.06088 10.6491 5.00439 10.4766 4.87954 10.3597L1.77406 7.45381C1.46544 7.16502 1.63212 6.64735 2.05126 6.59289L6.3094 6.03959C6.47658 6.01786 6.62156 5.91335 6.69502 5.76161L8.54996 1.92969Z" stroke="#979797" stroke-width="1.5" stroke-linecap="round" stroke-linejoin="round"/>
</svg>
