<svg width="17" height="17" viewBox="0 0 17 17" fill="none" xmlns="http://www.w3.org/2000/svg">
<path fill-rule="evenodd" clip-rule="evenodd" d="M4.62209 5.0681H5.37196C6.2536 5.0681 7.04275 4.52122 7.35231 3.69572L8.02787 1.89423C8.11679 1.6571 8.34348 1.5 8.59674 1.5C8.93229 1.5 9.2043 1.77201 9.2043 2.10756V3.32203C9.2043 4.28636 9.98605 5.0681 10.9504 5.0681H14.5829C14.8601 5.0681 15.0681 5.32172 15.0137 5.59356L13.7299 12.0126C13.5897 12.7137 12.974 13.2184 12.259 13.2184H4.62209V5.0681ZM5.37196 3.5681H4.62209H4.41552C4.20889 2.55019 3.30895 1.78405 2.23006 1.78405C0.998433 1.78405 0 2.78249 0 4.01412V13.8264C0 15.058 0.998433 16.0565 2.23006 16.0565C3.14453 16.0565 3.93044 15.506 4.27457 14.7184H4.62209H12.259C13.6891 14.7184 14.9203 13.709 15.2008 12.3068L16.4846 5.88773C16.7246 4.68771 15.8067 3.5681 14.5829 3.5681H10.9504C10.8145 3.5681 10.7043 3.45793 10.7043 3.32203V2.10756C10.7043 0.943587 9.76072 0 8.59674 0C7.71822 0 6.93184 0.544957 6.62337 1.36755L5.94781 3.16904C5.8578 3.40908 5.62833 3.5681 5.37196 3.5681ZM2.96013 4.01411V13.8264C2.96013 14.2296 2.63327 14.5565 2.23006 14.5565C1.82686 14.5565 1.5 14.2296 1.5 13.8264V4.01412C1.5 3.61091 1.82686 3.28405 2.23006 3.28405C2.63327 3.28405 2.96013 3.61091 2.96013 4.01411Z" fill="#979797"/>
</svg>
