<svg width="16" height="23" viewBox="0 0 16 23" fill="none" xmlns="http://www.w3.org/2000/svg">
<path fill-rule="evenodd" clip-rule="evenodd" d="M7.42857 1.5H8.57143C9.95214 1.5 11.0714 2.61929 11.0714 4V4.96429H9.71429C9.30007 4.96429 8.96429 5.30007 8.96429 5.71429C8.96429 6.1285 9.30007 6.46429 9.71429 6.46429H11.0714V7.82143L8.57143 7.82143C8.15722 7.82143 7.82143 8.15722 7.82143 8.57143C7.82143 8.98564 8.15722 9.32143 8.57143 9.32143H11.0714V10.8571C11.0714 12.2379 9.95214 13.3571 8.57143 13.3571H7.42857C6.04786 13.3571 4.92857 12.2379 4.92857 10.8571V4C4.92857 2.61929 6.04786 1.5 7.42857 1.5ZM3.42857 4C3.42857 1.79086 5.21943 0 7.42857 0H8.57143C10.7806 0 12.5714 1.79086 12.5714 4V10.8571C12.5714 13.0663 10.7806 14.8571 8.57143 14.8571H7.42857C5.21943 14.8571 3.42857 13.0663 3.42857 10.8571V4ZM7.25 18.251V20.9643H4.57143C4.15722 20.9643 3.82143 21.3001 3.82143 21.7143C3.82143 22.1285 4.15722 22.4643 4.57143 22.4643H11.4286C11.8428 22.4643 12.1786 22.1285 12.1786 21.7143C12.1786 21.3001 11.8428 20.9643 11.4286 20.9643H8.75V18.251C12.8166 17.8729 16 14.4511 16 10.2857V7.71429C16 7.2409 15.6162 6.85714 15.1429 6.85714C14.6695 6.85714 14.2857 7.2409 14.2857 7.71429V10.2857C14.2857 13.7572 11.4715 16.5714 8 16.5714C4.5285 16.5714 1.71429 13.7572 1.71429 10.2857V7.71429C1.71429 7.2409 1.33053 6.85714 0.857143 6.85714C0.383756 6.85714 0 7.2409 0 7.71429V10.2857C0 14.4511 3.18341 17.8729 7.25 18.251Z" fill="#979797"/>
</svg>
